<svg xmlns="http://www.w3.org/2000/svg" viewBox="0 0 446.2 160.15"><defs><style>.cls-1{fill:#1b75bc;}.cls-2{fill:#ed1c24;}.cls-3{fill:#231f20;}</style></defs><title>Asset 1</title><g id="Layer_2" data-name="Layer 2"><g id="Layer_1-2" data-name="Layer 1"><path class="cls-1" d="M242,10.49a6.35,6.35,0,0,1-4,6c3.65,1.12,5,5,5,7,0,7-5.21,9.19-11.66,9.19H216.48V1.44h14.78C237.4,1.44,242,4.2,242,10.49ZM222.27,14h9c3.69,0,4.89-1.56,4.89-3.35,0-1.42-1.16-3.83-4.89-3.83h-9Zm0,13.2h9c2.4,0,5.83-.8,5.83-3.75s-3.43-4.28-5.83-4.28h-9Z"/><path class="cls-1" d="M271.4,26.77H255.12l-2.67,5.89h-6.37l14-31.22h6.41l14,31.22H274ZM263.26,8l-5.79,13.29H269Z"/><path class="cls-1" d="M291.66,1.44V27.22h16v5.44h-21.9V1.44Z"/><path class="cls-1" d="M336.16,26.77H319.88l-2.67,5.89h-6.37l14-31.22h6.41l14,31.22h-6.41ZM328,8l-5.79,13.29H333.8Z"/><path class="cls-1" d="M373.86,19.32c0,8.08-5.12,14-13.71,14-8,0-13.66-4.77-13.66-13.6h5.79c0,5.35,2.58,8.07,7.87,8.07s7.83-3.7,7.83-8.43V6.92h-9.39V1.44h15.27Z"/><path class="cls-1" d="M408.93,1.48V19.37c0,9.23-5.65,14-13.48,14-7.48,0-13.84-4.55-13.84-14V1.48h5.83V19.37c0,5.62,3.2,8.6,8.05,8.6s7.61-3.25,7.61-8.6V1.48Z"/><path class="cls-1" d="M244.12,74.25a16.39,16.39,0,0,1-11.84,4.64c-11.57,0-16.46-8-16.51-16.1S221,46.33,232.28,46.33a16.09,16.09,0,0,1,11.44,4.77l-3.92,3.79A10.73,10.73,0,0,0,232.28,52c-7.52,0-10.77,5.62-10.72,10.84s3,10.57,10.72,10.57a11.46,11.46,0,0,0,7.83-3.17Z"/><path class="cls-1" d="M249.73,78.18V47h5.83V78.18Z"/><path class="cls-1" d="M272.78,52.31H262.9V47h25.64v5.35h-9.88V78.18h-5.88Z"/><path class="cls-1" d="M309.32,59.84,317.6,47h7.08v.26L312.26,65.29V78.18h-5.87V65.29l-12-18.07V47h7Z"/><path class="cls-2" d="M237.89,123.74V111.11H222.58v12.63h-5.87V92.52h5.87v13.15h15.31V92.52h5.83v31.22Z"/><path class="cls-2" d="M279.86,108.26c-.09,8.07-5,16.15-16,16.15s-16-7.9-16-16.11,5.25-16.45,16-16.45S280,100.1,279.86,108.26Zm-26.21.14c.13,5.12,2.89,10.61,10.23,10.61s10.1-5.53,10.19-10.66S271.22,97.2,263.88,97.2,253.51,103.13,253.65,108.4Z"/><path class="cls-2" d="M304.29,100c-1.06-1.78-4-3.48-7.38-3.48-4.36,0-6.46,1.83-6.46,4.15,0,2.72,3.21,3.48,6.95,3.92,6.49.81,12.55,2.5,12.55,10,0,7-6.14,9.94-13.09,9.94-6.36,0-11.26-2-13.57-7.67l4.9-2.54c1.38,3.44,5,5,8.76,5s7.17-1.29,7.17-4.68c0-3-3.07-4.15-7.21-4.59-6.37-.76-12.24-2.46-12.24-9.46,0-6.42,6.32-9,12.06-9.1,4.85,0,9.88,1.38,12.24,6.2Z"/><path class="cls-2" d="M329.18,114.5h-8.82v9.19h-5.87V92.47c4.89,0,9.79,0,14.69,0C344.4,92.43,344.44,114.5,329.18,114.5Zm-8.82-5.39h8.82c7.52,0,7.47-11.06,0-11.06h-8.82Z"/><path class="cls-2" d="M344.62,123.69V92.47h5.83v31.22Z"/><path class="cls-2" d="M365.45,97.82h-9.88V92.47h25.64v5.35h-9.88v25.87h-5.88Z"/><path class="cls-2" d="M406.89,117.8H390.6l-2.67,5.89h-6.36l14-31.22H402l14,31.22h-6.41ZM398.74,99,393,112.32h11.57Z"/><path class="cls-2" d="M424.91,92.47v25.78h16v5.44H419V92.47Z"/><path class="cls-1" d="M177.51,160.15a2.44,2.44,0,0,1-2.44-2.44V18.24h-1.3a2.43,2.43,0,0,1-2.44-2.43V12.37h-5a2.43,2.43,0,0,1-2.43-2.43V4.88H116.41V9.94A2.43,2.43,0,0,1,114,12.37h-6.16v3.44a2.43,2.43,0,0,1-2.44,2.43H103v82a2.44,2.44,0,1,1-4.87,0V15.81a2.44,2.44,0,0,1,2.44-2.44h2.39V9.94a2.44,2.44,0,0,1,2.44-2.44h6.16V2.44A2.44,2.44,0,0,1,114,0h52.32a2.44,2.44,0,0,1,2.44,2.44V7.5h5a2.44,2.44,0,0,1,2.44,2.44v3.43h1.3A2.44,2.44,0,0,1,180,15.81v141.9A2.44,2.44,0,0,1,177.51,160.15Z"/><path class="cls-1" d="M197.7,159.09a1.62,1.62,0,0,1-1.63-1.62V92l-8.24-8.24H177.51a1.63,1.63,0,1,1,0-3.25h11a1.64,1.64,0,0,1,1.15.47l9.2,9.2a1.65,1.65,0,0,1,.47,1.15v66.15A1.61,1.61,0,0,1,197.7,159.09Z"/><path class="cls-3" d="M116.42,38.34h-7a1.63,1.63,0,0,1-1.62-1.63V18.49a1.63,1.63,0,0,1,1.62-1.63h7a1.63,1.63,0,0,1,1.63,1.63V36.71A1.63,1.63,0,0,1,116.42,38.34ZM111,35.09h3.76v-15H111Z"/><path class="cls-3" d="M133.58,38.34h-7A1.63,1.63,0,0,1,125,36.71V18.49a1.63,1.63,0,0,1,1.63-1.63h7a1.63,1.63,0,0,1,1.63,1.63V36.71A1.63,1.63,0,0,1,133.58,38.34Zm-5.38-3.25H132v-15H128.2Z"/><path class="cls-3" d="M150.74,38.34h-7a1.63,1.63,0,0,1-1.63-1.63V18.49a1.63,1.63,0,0,1,1.63-1.63h7a1.63,1.63,0,0,1,1.63,1.63V36.71A1.63,1.63,0,0,1,150.74,38.34Zm-5.38-3.25h3.76v-15h-3.76Z"/><path class="cls-3" d="M167.9,38.34h-7a1.63,1.63,0,0,1-1.63-1.63V18.49a1.63,1.63,0,0,1,1.63-1.63h7a1.63,1.63,0,0,1,1.63,1.63V36.71A1.63,1.63,0,0,1,167.9,38.34Zm-5.38-3.25h3.76v-15h-3.76Z"/><path class="cls-3" d="M215.58,143.12c0-1.77.32-3,1-3.64a2.89,2.89,0,0,1,2.18-.78,2.51,2.51,0,0,1,2.67,1.72,8.58,8.58,0,0,1,.35,2.7V150a7.06,7.06,0,0,1-.68,3.54,3.12,3.12,0,0,1-4.78,0,6.8,6.8,0,0,1-.7-3.53Zm4.33-.1a6.51,6.51,0,0,0-.24-2.12.94.94,0,0,0-1-.63,1,1,0,0,0-1,.64,5.55,5.55,0,0,0-.29,2.1v7a7.54,7.54,0,0,0,.25,2.41,1.09,1.09,0,0,0,2,0,8,8,0,0,0,.25-2.41Z"/><path class="cls-3" d="M228.28,141.19h1.83v13.27h-1.83v-1.35a2.25,2.25,0,0,1-.73,1.1,2.05,2.05,0,0,1-1.38.43,1.92,1.92,0,0,1-1.5-.72,3.31,3.31,0,0,1-.62-2.22V141.19h1.81V151.5c0,1,.38,1.57,1.14,1.57a1.09,1.09,0,0,0,1-.45,1.89,1.89,0,0,0,.32-1.17Z"/><path class="cls-3" d="M233,138.89h1.81v2.41h1.43v1.34h-1.43v9.69c0,.34.08.56.24.64a3.21,3.21,0,0,0,1.21.13v1.44H235a2.14,2.14,0,0,1-1.63-.45,2.52,2.52,0,0,1-.38-1.6v-9.85H231.8V141.3H233Z"/><path class="cls-3" d="M243.4,151.42q0,3.22-2.84,3.22a2.57,2.57,0,0,1-2.15-.91,4.81,4.81,0,0,1-.71-2.93v-1h1.76v1c0,1.53.35,2.3,1,2.3a.93.93,0,0,0,.83-.37,2.41,2.41,0,0,0,.25-1.29,3.8,3.8,0,0,0-1.33-2.74c-.06-.07-.22-.21-.46-.44s-.4-.38-.47-.46a4.94,4.94,0,0,1-1.73-3.63,3.31,3.31,0,0,1,.74-2.35,2.79,2.79,0,0,1,2.12-.78,2.67,2.67,0,0,1,1.51.39c.81.53,1.22,1.78,1.22,3.75v.64h-1.72v-.92a5,5,0,0,0-.23-1.73.79.79,0,0,0-.77-.57,1,1,0,0,0-.83.35,1.92,1.92,0,0,0-.27,1.16,3.51,3.51,0,0,0,1.21,2.5l1,.89A5.37,5.37,0,0,1,243.4,151.42Z"/><path class="cls-3" d="M245.55,138.89h1.81v2.41h1.44v1.34h-1.44v9.69c0,.34.08.56.24.64a3.28,3.28,0,0,0,1.22.13v1.44h-1.25a2.17,2.17,0,0,1-1.64-.45,2.59,2.59,0,0,1-.38-1.6v-9.85h-1.21V141.3h1.21Z"/><path class="cls-3" d="M250.63,145c0-1.6.25-2.67.75-3.2a2.81,2.81,0,0,1,2.14-.8,2.65,2.65,0,0,1,2,.68,3.63,3.63,0,0,1,.76,2.15c0,.43.06.95.06,1.57v9h-1.82v-1.15a1.75,1.75,0,0,1-.62.87,1.77,1.77,0,0,1-1.19.4c-1.5,0-2.26-1.18-2.27-3.52v-1.29a3.11,3.11,0,0,1,.63-2,8.54,8.54,0,0,1,3.44-1.84v-1a4.67,4.67,0,0,0-.25-2.05,1,1,0,0,0-.84-.34.77.77,0,0,0-.8.52,5.74,5.74,0,0,0-.21,1.88v.46h-1.8Zm3.9,2.12a8.7,8.7,0,0,0-1.49.78,1.89,1.89,0,0,0-.56.64,2.88,2.88,0,0,0-.19,1.21V151a4.48,4.48,0,0,0,.21,1.64.7.7,0,0,0,.7.47,1.28,1.28,0,0,0,.84-.29,1.55,1.55,0,0,0,.49-.62Z"/><path class="cls-3" d="M260.65,142.6a2.11,2.11,0,0,1,.78-1.11,2.31,2.31,0,0,1,1.48-.46,1.71,1.71,0,0,1,1.44.72,3.45,3.45,0,0,1,.56,2.13v10.58h-1.82V143.89a1.44,1.44,0,0,0-.31-1,1.1,1.1,0,0,0-.85-.33,1.17,1.17,0,0,0-.91.38,1.55,1.55,0,0,0-.37,1.14v10.39h-1.81V141.19h1.81Z"/><path class="cls-3" d="M271.3,138.73h1.83v15.73H271.3v-1.11a1.82,1.82,0,0,1-1.83,1.23c-1.22,0-1.94-.81-2.15-2.42a15.29,15.29,0,0,1-.1-1.94v-5a5.68,5.68,0,0,1,.77-3.39,2.13,2.13,0,0,1,1.76-.78,1.53,1.53,0,0,1,.91.3,1.79,1.79,0,0,1,.64.75Zm0,6.44a6.26,6.26,0,0,0-.23-2,1,1,0,0,0-1.81,0,6.53,6.53,0,0,0-.23,2.05v5.36c0,1.3.17,2.08.51,2.35a.89.89,0,0,0,.6.17,1,1,0,0,0,.64-.21c.35-.3.52-1.09.52-2.39Z"/><path class="cls-3" d="M275.74,138.31h1.83V140h-1.83Zm0,2.88h1.82v13.27h-1.82Z"/><path class="cls-3" d="M282,142.6a2.15,2.15,0,0,1,.77-1.11,2.36,2.36,0,0,1,1.49-.46,1.74,1.74,0,0,1,1.44.72,3.45,3.45,0,0,1,.56,2.13v10.58h-1.82V143.89a1.44,1.44,0,0,0-.31-1,1.11,1.11,0,0,0-.86-.33,1.19,1.19,0,0,0-.91.38,1.59,1.59,0,0,0-.36,1.14v10.39h-1.81V141.19H282Z"/><path class="cls-3" d="M291,141a1.53,1.53,0,0,1,1.61,1.14v-1h1.82v12a2.87,2.87,0,0,1-1.79,3,4.66,4.66,0,0,1-4.13-.62l.65-1.24a3.59,3.59,0,0,0,2.05.66,1.23,1.23,0,0,0,1.06-.46,1.93,1.93,0,0,0,.34-1.21v-1.26a1.57,1.57,0,0,1-.66.86,2.27,2.27,0,0,1-1.1.23A1.82,1.82,0,0,1,289,152.1a7.61,7.61,0,0,1-.49-3v-3.8Q288.53,141,291,141Zm1.61,4a5.37,5.37,0,0,0-.23-1.88.83.83,0,0,0-.82-.59,1,1,0,0,0-.83.33,1.83,1.83,0,0,0-.3.84,9.08,9.08,0,0,0-.07,1.28v4.13a5.57,5.57,0,0,0,.26,2,.94.94,0,0,0,1,.62.78.78,0,0,0,.58-.21q.45-.44.45-2.46Z"/><path class="cls-3" d="M301.21,145.55a9,9,0,0,1,.26-2.53,3.51,3.51,0,0,1,.59-1.17,2.68,2.68,0,0,1,2.11-.82,2.56,2.56,0,0,1,2,.69,3.74,3.74,0,0,1,.74,2.06c0,.39.06.85.06,1.39v.92h-1.79v-1.17a8.87,8.87,0,0,0-.09-1.62,1.54,1.54,0,0,0-.85-.71,1,1,0,0,0-1.07.87A6.54,6.54,0,0,0,303,145v5.64a6,6,0,0,0,.21,1.91.8.8,0,0,0,.8.55,1,1,0,0,0,.87-.39,4.47,4.47,0,0,0,.27-2v-1.28H307v.86c0,1.81-.24,3-.72,3.55a2.69,2.69,0,0,1-2.18.84,2.55,2.55,0,0,1-2.72-2.47,15,15,0,0,1-.14-2.16Z"/><path class="cls-3" d="M309.18,145c0-1.6.25-2.67.75-3.2a2.83,2.83,0,0,1,2.14-.8,2.65,2.65,0,0,1,2,.68,3.63,3.63,0,0,1,.76,2.15c0,.43.06.95.06,1.57v9h-1.82v-1.15a1.88,1.88,0,0,1-1.8,1.27c-1.51,0-2.26-1.18-2.28-3.52v-1.29a3.11,3.11,0,0,1,.63-2,8.54,8.54,0,0,1,3.44-1.84v-1a4.9,4.9,0,0,0-.24-2.05,1,1,0,0,0-.85-.34.78.78,0,0,0-.8.52A5.81,5.81,0,0,0,311,145v.46h-1.81Zm3.9,2.12a8.49,8.49,0,0,0-1.48.78,1.7,1.7,0,0,0-.56.64,2.69,2.69,0,0,0-.2,1.21V151a4.48,4.48,0,0,0,.21,1.64.71.71,0,0,0,.7.47,1.33,1.33,0,0,0,.85-.29,1.61,1.61,0,0,0,.48-.62Z"/><path class="cls-3" d="M321.47,141a7.28,7.28,0,0,1,0,1.16v.38a2.48,2.48,0,0,0-2.29,1.11v10.78h-1.82V141.19h1.82v1.48a2.33,2.33,0,0,1,.81-1.21A2.42,2.42,0,0,1,321.47,141Z"/><path class="cls-3" d="M323,145.31a5.22,5.22,0,0,1,.9-3.5,2.68,2.68,0,0,1,2.09-.78,2.33,2.33,0,0,1,2.51,1.73,9.71,9.71,0,0,1,.28,2.63v2.5h-4v2.65a5.12,5.12,0,0,0,.27,2.15,1,1,0,0,0,.87.42.77.77,0,0,0,.79-.5,3.09,3.09,0,0,0,.21-1.07c0-.39,0-.71,0-1v-1.07h1.78v.57a10,10,0,0,1-.3,3,2.27,2.27,0,0,1-.9,1.23,2.77,2.77,0,0,1-1.49.37,3.71,3.71,0,0,1-1.42-.22,2.17,2.17,0,0,1-.85-.6,3.15,3.15,0,0,1-.55-1.19A10.11,10.11,0,0,1,323,150Zm4-.34a8.53,8.53,0,0,0-.1-1.71,2.44,2.44,0,0,0-.26-.51.67.67,0,0,0-.58-.22.94.94,0,0,0-1,.67,6.33,6.33,0,0,0-.21,1.83v1.63h2.16Z"/><path class="cls-3" d="M331.26,152.71h1.55v1.75h-1.55Z"/><path class="cls-3" d="M340.18,138.89h4.65v1.53H342v5.32h2.67v1.52H342v5.68h2.86v1.52h-4.69Z"/><path class="cls-3" d="M346.11,141.19h1.6l1.39,4.24,1.24-4.24H352l-2.14,6.5,2.23,6.77h-1.69L348.94,150l-1.34,4.51H346l2.23-6.83Z"/><path class="cls-3" d="M353.92,138.89h1.81v2.41h1.43v1.34h-1.43v9.69c0,.34.08.56.24.64a3.21,3.21,0,0,0,1.21.13v1.44h-1.25a2.14,2.14,0,0,1-1.63-.45,2.52,2.52,0,0,1-.38-1.6v-9.85H352.7V141.3h1.22Z"/><path class="cls-3" d="M363.09,141a8.48,8.48,0,0,1,0,1.16v.38a2.48,2.48,0,0,0-2.29,1.11v10.78H359V141.19h1.82v1.48a2.33,2.33,0,0,1,.81-1.21A2.42,2.42,0,0,1,363.09,141Z"/><path class="cls-3" d="M364.57,145.31a5.22,5.22,0,0,1,.9-3.5,2.68,2.68,0,0,1,2.09-.78,2.33,2.33,0,0,1,2.51,1.73,9.71,9.71,0,0,1,.28,2.63v2.5h-4v2.65a5.12,5.12,0,0,0,.27,2.15,1,1,0,0,0,.87.42.77.77,0,0,0,.79-.5,3.09,3.09,0,0,0,.21-1.07c0-.39,0-.71,0-1v-1.07h1.78v.57a10,10,0,0,1-.3,3,2.27,2.27,0,0,1-.9,1.23,2.77,2.77,0,0,1-1.49.37,3.71,3.71,0,0,1-1.42-.22,2.17,2.17,0,0,1-.85-.6,3.3,3.3,0,0,1-.56-1.19,10.7,10.7,0,0,1-.23-2.61Zm4-.34a8.53,8.53,0,0,0-.1-1.71,2.06,2.06,0,0,0-.27-.51.64.64,0,0,0-.57-.22.94.94,0,0,0-1,.67,6.33,6.33,0,0,0-.21,1.83v1.63h2.16Z"/><path class="cls-3" d="M374.48,142.57a2.19,2.19,0,0,1,.74-1.11,2.06,2.06,0,0,1,1.33-.43,1.84,1.84,0,0,1,1.88,1.34,2.6,2.6,0,0,1,.91-1,2.48,2.48,0,0,1,1.33-.36,1.87,1.87,0,0,1,1.61.75,3.77,3.77,0,0,1,.54,2.21v10.47H381V143.94c0-.9-.35-1.35-1.06-1.35a1.17,1.17,0,0,0-1.29,1.23v10.64h-1.83V143.93c0-.89-.34-1.34-1-1.34a1.19,1.19,0,0,0-1,.41,1.71,1.71,0,0,0-.34,1.13v10.33h-1.81V141.19h1.81Z"/><path class="cls-3" d="M385.13,145.31a5.22,5.22,0,0,1,.9-3.5,2.69,2.69,0,0,1,2.09-.78,2.33,2.33,0,0,1,2.51,1.73,9.65,9.65,0,0,1,.29,2.63v2.5h-4v2.65a5.12,5.12,0,0,0,.27,2.15,1,1,0,0,0,.87.42.77.77,0,0,0,.79-.5,3.09,3.09,0,0,0,.21-1.07v-2h1.78v.57a10.47,10.47,0,0,1-.29,3,2.27,2.27,0,0,1-.9,1.23,2.77,2.77,0,0,1-1.49.37,3.77,3.77,0,0,1-1.43-.22,2.25,2.25,0,0,1-.85-.6,3.49,3.49,0,0,1-.55-1.19,10.11,10.11,0,0,1-.24-2.61Zm4-.34a7.78,7.78,0,0,0-.1-1.71,2,2,0,0,0-.26-.51.65.65,0,0,0-.57-.22.94.94,0,0,0-1,.67A6.33,6.33,0,0,0,387,145v1.63h2.15Z"/><path class="cls-3" d="M393.24,138.73h1.82v15.73h-1.82Z"/><path class="cls-3" d="M401.3,141.19h1.76l-2.21,13.53a3.6,3.6,0,0,1-.4,1.44,1.09,1.09,0,0,1-.55.43,2.86,2.86,0,0,1-.79.09h-1.78v-1.37H398c.62,0,1-.07,1-.21a.67.67,0,0,0,.08-.38A4.71,4.71,0,0,0,399,154l-2.16-12.8h1.76l1,6.9.39,3.59h.16l.35-3.59Z"/><path class="cls-3" d="M408.91,145.55a9,9,0,0,1,.26-2.53,3.51,3.51,0,0,1,.59-1.17,2.68,2.68,0,0,1,2.11-.82,2.56,2.56,0,0,1,2,.69,3.74,3.74,0,0,1,.74,2.06c0,.39.06.85.06,1.39v.92h-1.79v-1.17a8.87,8.87,0,0,0-.09-1.62,1.54,1.54,0,0,0-.85-.71,1,1,0,0,0-1.07.87,6.54,6.54,0,0,0-.14,1.51v5.64a6,6,0,0,0,.21,1.91.8.8,0,0,0,.8.55,1,1,0,0,0,.87-.39,4.47,4.47,0,0,0,.27-2v-1.28h1.79v.86c0,1.81-.24,3-.72,3.55a2.69,2.69,0,0,1-2.18.84,2.55,2.55,0,0,1-2.72-2.47,15,15,0,0,1-.14-2.16Z"/><path class="cls-3" d="M416.91,138.73h1.81v15.73h-1.81Z"/><path class="cls-3" d="M421.13,145.38c0-2.15.49-3.5,1.49-4A2.94,2.94,0,0,1,424,141a2.5,2.5,0,0,1,2.66,1.68,8.68,8.68,0,0,1,.35,2.67v4.7c0,1.86-.25,3.08-.75,3.67a2.73,2.73,0,0,1-2.18.87,2.47,2.47,0,0,1-2.64-1.77,9.64,9.64,0,0,1-.32-2.77Zm4.07-.36c0-1.27-.18-2-.54-2.3a.89.89,0,0,0-.58-.17.87.87,0,0,0-.92.64A6.19,6.19,0,0,0,423,145v5.56c0,1.3.18,2.09.55,2.36a.9.9,0,0,0,.55.17h0a.87.87,0,0,0,.91-.66,6.45,6.45,0,0,0,.21-1.87Z"/><path class="cls-3" d="M434.71,151.42c0,2.15-.95,3.22-2.84,3.22a2.56,2.56,0,0,1-2.15-.91,4.74,4.74,0,0,1-.72-2.93v-1h1.76v1c0,1.53.35,2.3,1.05,2.3a.9.9,0,0,0,.82-.37,2.39,2.39,0,0,0,.26-1.29,3.84,3.84,0,0,0-1.33-2.74l-.46-.44-.48-.46a4.93,4.93,0,0,1-1.72-3.63,3.27,3.27,0,0,1,.74-2.35,2.77,2.77,0,0,1,2.11-.78,2.7,2.7,0,0,1,1.52.39c.81.53,1.22,1.78,1.22,3.75v.64h-1.73v-.92a5,5,0,0,0-.22-1.73.79.79,0,0,0-.78-.57,1,1,0,0,0-.82.35,1.92,1.92,0,0,0-.27,1.16,3.51,3.51,0,0,0,1.21,2.5l.95.89A5.39,5.39,0,0,1,434.71,151.42Z"/><path class="cls-3" d="M436.34,145.31a5.22,5.22,0,0,1,.9-3.5,2.68,2.68,0,0,1,2.09-.78,2.33,2.33,0,0,1,2.51,1.73,9.71,9.71,0,0,1,.28,2.63v2.5h-4v2.65a5.12,5.12,0,0,0,.27,2.15,1,1,0,0,0,.87.42.77.77,0,0,0,.79-.5,3.09,3.09,0,0,0,.21-1.07c0-.39,0-.71,0-1v-1.07h1.78v.57a10,10,0,0,1-.3,3,2.27,2.27,0,0,1-.9,1.23,2.77,2.77,0,0,1-1.49.37,3.71,3.71,0,0,1-1.42-.22,2.17,2.17,0,0,1-.85-.6,3.3,3.3,0,0,1-.56-1.19,10.7,10.7,0,0,1-.23-2.61Zm4-.34a8.53,8.53,0,0,0-.1-1.71,2.06,2.06,0,0,0-.27-.51.64.64,0,0,0-.57-.22.94.94,0,0,0-1,.67,6.33,6.33,0,0,0-.21,1.83v1.63h2.16Z"/><path class="cls-3" d="M444.65,152.71h1.55v1.75h-1.55Z"/><path class="cls-1" d="M45.86,122.23H15.25c-5.64,0-9.84-1.57-12.47-4.67a12.8,12.8,0,0,1-2.71-9.4V37.87c0-3.76,1.13-6.67,3.35-8.66a11.11,11.11,0,0,1,8-2.55h7.38a2.44,2.44,0,1,1,0,4.87H11.06a6.49,6.49,0,0,0-4.41,1.34c-1.13,1-1.7,2.72-1.7,5v70.45a2.56,2.56,0,0,1,0,.39,7.89,7.89,0,0,0,1.61,5.73c1.66,1.94,4.6,2.92,8.72,2.92H45.86a2.44,2.44,0,1,1,0,4.87Z"/><path class="cls-1" d="M76.46,122.23H45.86a2.44,2.44,0,1,1,0-4.87h30.6c4.12,0,7.06-1,8.73-2.92a7.88,7.88,0,0,0,1.6-5.74c0-.12,0-.26,0-.38V37.87c0-2.29-.57-4-1.7-5a6.48,6.48,0,0,0-4.42-1.34H72.91a2.44,2.44,0,1,1,0-4.87h7.37a11.11,11.11,0,0,1,8,2.55c2.22,2,3.35,4.91,3.35,8.66v70.29a12.75,12.75,0,0,1-2.71,9.4C86.3,120.66,82.11,122.23,76.46,122.23Z"/><path class="cls-1" d="M97.41,155.85c-.52,0-.85,0-.92,0H60.79c-7,0-12-1.69-14.93-5a9.77,9.77,0,0,1-2.44-7.11l0-21.66a2.44,2.44,0,0,1,2.44-2.44h0A2.43,2.43,0,0,1,48.27,122l0,21.79a2,2,0,0,1,0,.34,5,5,0,0,0,1.34,3.53c1.92,2.13,5.78,3.25,11.18,3.25H96.65c.21,0,7.15.37,10.93-3.19a8.21,8.21,0,0,0,2.43-6.31V82a12.46,12.46,0,0,1,2.74-9.17c2.74-3.21,7.16-4.84,13.16-4.84H132c.23,0,9-.44,14.19,4.47a12,12,0,0,1,3.7,9.09v29.13a2.44,2.44,0,0,1-4.88,0V81.56A7.24,7.24,0,0,0,142.89,76c-3.65-3.46-10.65-3.15-10.72-3.14h-6.26c-4.5,0-7.68,1.05-9.45,3.13a7.5,7.5,0,0,0-1.6,5.47,2.34,2.34,0,0,1,0,.38v59.59a13,13,0,0,1-4,9.88C106.52,155.44,99.85,155.85,97.41,155.85Z"/><path class="cls-1" d="M147.49,144.44c-11.73,0-21.27-8.12-21.27-18.1s9.54-18.09,21.27-18.09,21.27,8.12,21.27,18.09S159.22,144.44,147.49,144.44Zm0-31.31c-9,0-16.39,5.93-16.39,13.21s7.35,13.22,16.39,13.22,16.39-5.93,16.39-13.22S156.53,113.13,147.49,113.13Z"/><path class="cls-3" d="M157.65,126.34c0,4.67-4.55,8.45-10.16,8.45s-10.16-3.78-10.16-8.45,4.55-8.44,10.16-8.44S157.65,121.68,157.65,126.34Z"/><path class="cls-3" d="M147.49,135.6c-6.05,0-11-4.15-11-9.26s4.92-9.25,11-9.25,11,4.15,11,9.25S153.54,135.6,147.49,135.6Zm0-16.89c-5.15,0-9.35,3.43-9.35,7.63s4.2,7.64,9.35,7.64,9.35-3.43,9.35-7.64S152.64,118.71,147.49,118.71Z"/><rect class="cls-2" x="14.71" y="66.59" width="62.3" height="15.69"/><rect class="cls-2" x="38.01" y="43.28" width="15.69" height="62.3"/><path class="cls-3" d="M116.78,63.13h-7a1.63,1.63,0,0,1-1.63-1.62V43.28a1.63,1.63,0,0,1,1.63-1.62h7a1.63,1.63,0,0,1,1.63,1.62V61.51A1.63,1.63,0,0,1,116.78,63.13Zm-5.38-3.25h3.76v-15H111.4Z"/><path class="cls-3" d="M134,63.13h-7a1.63,1.63,0,0,1-1.63-1.62V43.28a1.63,1.63,0,0,1,1.63-1.62h7a1.63,1.63,0,0,1,1.62,1.62V61.51A1.63,1.63,0,0,1,134,63.13Zm-5.39-3.25h3.76v-15h-3.76Z"/><path class="cls-3" d="M151.11,63.13h-7a1.63,1.63,0,0,1-1.63-1.62V43.28a1.63,1.63,0,0,1,1.63-1.62h7a1.63,1.63,0,0,1,1.62,1.62V61.51A1.63,1.63,0,0,1,151.11,63.13Zm-5.39-3.25h3.76v-15h-3.76Z"/><path class="cls-3" d="M168.27,63.13h-7a1.63,1.63,0,0,1-1.63-1.62V43.28a1.63,1.63,0,0,1,1.63-1.62h7a1.63,1.63,0,0,1,1.62,1.62V61.51A1.63,1.63,0,0,1,168.27,63.13Zm-5.39-3.25h3.76v-15h-3.76Z"/><path class="cls-3" d="M167.39,90.28h-7a1.63,1.63,0,0,1-1.63-1.63V70.43a1.63,1.63,0,0,1,1.63-1.63h7A1.63,1.63,0,0,1,169,70.43V88.65A1.63,1.63,0,0,1,167.39,90.28ZM162,87h3.76v-15H162Z"/><path class="cls-1" d="M74.18,26.73V24.4l-12,0a2.18,2.18,0,0,0-2.18,2.17V31a2.15,2.15,0,0,0,2.16,2.17l12,0v-2h.31V26.73Z"/><path class="cls-1" d="M19.3,31.11v2.32l12,0a2.17,2.17,0,0,0,2.18-2.16V26.88a2.17,2.17,0,0,0-2.17-2.17l-12,0v2.05H19v4.38Z"/></g></g></svg>